# xmcd
#
# Track frame offsets: 
#        187
#        16290
#        32700
#        46540
#        63450
#        79530
#        95450
#        110005
#        124950
#        137962
#
# Disc length: 2050 seconds
#
# Revision: 2
# Processed by: cddbd v1.4PL0 Copyright (c) Steve Scherf et al.
# Submitted via: ExactAudioCopy v0.90b4
#
DISCID=7f08000a
DTITLE=Lisa Stewart - Lisa Stewart
DYEAR=1900
DGENRE=Country
TTITLE0=Somebody's In Love
TTITLE1=Drive Time
TTITLE2=Don't Touch Me
TTITLE3=Under The Light Of The Texaco
TTITLE4=Old-Fashioned Broken Heart
TTITLE5=If I Was Her
TTITLE6=Forgive and Forget
TTITLE7=That Makes One Of Us
TTITLE8=There Goes The Neighborhood
TTITLE9=Is It Love
EXTD=
EXTT0=
EXTT1=
EXTT2=
EXTT3=
EXTT4=
EXTT5=
EXTT6=
EXTT7=
EXTT8=
EXTT9=
PLAYORDER=
